<svg width="730" height="173" viewBox="0 0 730 173" fill="none" xmlns="http://www.w3.org/2000/svg">
<style>@import url('https://fonts.googleapis.com/css2?family=Montserrat:wght@700;800');</style>
<path fill-rule="evenodd" clip-rule="evenodd" d="M111.568 43.2789C103.759 39.063 94.8208 36.67 85.324 36.67C54.7692 36.67 30 61.4392 30 91.993C30 122.548 54.7691 147.317 85.324 147.317C115.878 147.317 140.647 122.548 140.647 91.993C140.647 73.5243 131.597 57.1692 117.69 47.1205L116.538 53.8015C127.592 62.8466 134.647 76.596 134.647 91.993C134.647 119.234 112.564 141.317 85.324 141.317C58.0829 141.317 36 119.234 36 91.993C36 64.7529 58.0828 42.67 85.324 42.67C93.5152 42.67 101.24 44.6668 108.038 48.2002L111.568 43.2789Z" fill="#044150"/>
<path fill-rule="evenodd" clip-rule="evenodd" d="M122.906 26.6147C124.281 27.4801 124.996 29.0914 124.715 30.6917L111.634 105.196C111.374 106.675 110.308 107.884 108.873 108.326C107.438 108.769 105.876 108.37 104.828 107.295L84.5005 86.4178L57.6125 78.1868C56.1575 77.7414 55.0812 76.509 54.8357 75.0073C54.5902 73.5056 55.2181 71.9946 56.4555 71.1091L118.448 26.7471C119.769 25.8016 121.531 25.7492 122.906 26.6147ZM67.6917 72.9058L87.8222 79.0682C88.4651 79.265 89.0481 79.6207 89.5172 80.1025L105.106 96.1126L115.143 38.9493L67.6917 72.9058Z" fill="#044150"/>
<path fill-rule="evenodd" clip-rule="evenodd" d="M71.9806 85.6278C73.2967 86.6343 73.5478 88.5171 72.5413 89.8332L57.7543 109.17C56.7479 110.486 54.865 110.737 53.5489 109.731C52.2328 108.725 51.9817 106.842 52.9882 105.526L67.7752 86.1886C68.7816 84.8724 70.6645 84.6214 71.9806 85.6278ZM78.701 97.6054C80.0555 98.5596 80.38 100.431 79.4258 101.786L60.6678 128.413C59.7136 129.767 57.842 130.092 56.4875 129.137C55.133 128.183 54.8085 126.312 55.7627 124.957L74.5207 98.3302C75.4749 96.9757 77.3465 96.6512 78.701 97.6054ZM93.0543 99.1848C94.4296 100.109 94.7954 101.973 93.8714 103.348L79.1054 125.325C78.1814 126.7 76.3174 127.066 74.9422 126.142C73.5669 125.218 73.2011 123.354 74.1251 121.979L88.8911 100.002C89.8151 98.6265 91.6791 98.2607 93.0543 99.1848Z" fill="#044150"/>
<path fill-rule="evenodd" clip-rule="evenodd" d="M85.5136 82.6308L120.776 30.5688L59.3516 75.0478L85.5136 82.6308" fill="#044150"/>
<g clip-path="url(#clip0_dark_lms)">
<path fill-rule="evenodd" clip-rule="evenodd" d="M459.876 124.214C465.154 122.36 469.647 119.556 473.356 115.799C477.065 112.043 479.939 107.36 481.985 101.749C484.029 96.1392 485.052 89.6241 485.052 82.2075V25.5801H467.65V83.0632C467.65 92.2878 465.401 99.2298 460.908 103.888C456.413 108.548 450.244 110.878 442.404 110.878C434.465 110.878 428.249 108.452 423.756 103.603C419.261 98.753 417.013 91.6705 417.013 82.3501V25.5801H399.612V83.0632C399.612 90.2903 400.611 96.6384 402.607 102.105C404.605 107.574 407.457 112.161 411.166 115.87C414.874 119.578 419.343 122.36 424.574 124.214C429.802 126.069 435.65 126.995 442.119 126.995C448.679 126.995 454.599 126.069 459.876 124.214ZM526.271 110.306C523.608 109.165 521.279 107.55 519.282 105.456C517.285 103.366 515.691 100.822 514.504 97.8259C513.313 94.8302 512.72 91.5278 512.72 87.9127V87.6275C512.72 84.0144 513.313 80.7334 514.504 77.7855C515.691 74.8386 517.285 72.2941 519.282 70.154C521.279 68.0149 523.608 66.3738 526.271 65.233C528.933 64.0921 531.738 63.5217 534.687 63.5217C537.633 63.5217 540.415 64.0921 543.031 65.233C545.645 66.3738 547.928 67.9924 549.878 70.0827C551.825 72.1759 553.372 74.7184 554.513 77.7142C555.654 80.709 556.225 84.0144 556.225 87.6275V87.9127C556.225 91.6215 555.654 94.9728 554.513 97.9686C553.372 100.964 551.825 103.484 549.878 105.528C547.928 107.574 545.645 109.165 543.031 110.306C540.415 111.448 537.633 112.018 534.687 112.018C531.738 112.018 528.933 111.448 526.271 110.306ZM495.75 148.248H513.152V113.73C515.809 117.249 519.176 120.341 523.255 123.001C527.333 125.663 532.457 126.995 538.624 126.995C543.081 126.995 547.423 126.14 551.644 124.427C555.865 122.716 559.614 120.198 562.885 116.868C566.157 113.54 568.767 109.45 570.713 104.601C572.656 99.7511 573.63 94.1884 573.63 87.9126V87.6274C573.63 81.3517 572.634 75.7879 570.641 70.9382C568.649 66.0886 566.015 62.0018 562.743 58.672C559.471 55.3441 555.747 52.824 551.573 51.1117C547.398 49.4004 543.081 48.5448 538.624 48.5448C532.553 48.5448 527.476 49.8996 523.397 52.6101C519.319 55.3197 515.901 58.672 513.152 62.666V50.1135H495.75V148.248V148.248Z" fill="#044150"/>
<path fill-rule="evenodd" clip-rule="evenodd" d="M204.522 124.87C208.775 123.575 212.418 121.675 215.449 119.174C218.479 116.673 220.845 113.617 222.545 110.004C224.246 106.392 225.096 102.317 225.096 97.7771V97.499C225.096 93.5182 224.421 90.0202 223.075 87.0092C221.729 84.0002 219.755 81.3609 217.155 79.0894C214.554 76.8209 211.283 74.8998 207.335 73.3239C203.389 71.7502 198.86 70.3149 193.754 69.0162C189.111 67.9049 185.279 66.8414 182.261 65.8207C179.244 64.8031 176.875 63.7152 175.158 62.5561C173.439 61.3989 172.256 60.1032 171.606 58.6659C170.955 57.2307 170.631 55.5876 170.631 53.7327V53.4557C170.631 50.2144 172.021 47.4814 174.799 45.2578C177.578 43.0351 181.469 41.9238 186.471 41.9238C190.917 41.9238 195.316 42.7805 199.67 44.4938C204.023 46.2092 208.423 48.6854 212.87 51.9267L222.039 39.0054C217.038 35.0236 211.688 31.9891 205.992 29.905C200.296 27.8209 193.88 26.7789 186.749 26.7789C181.932 26.7789 177.49 27.4736 173.423 28.863C169.355 30.2524 165.875 32.1755 162.981 34.6294C160.087 37.0843 157.815 40.0475 156.161 43.521C154.506 46.9945 153.681 50.8154 153.681 54.9836V55.2617C153.681 59.708 154.399 63.5064 155.839 66.655C157.278 69.8046 159.369 72.4683 162.108 74.6441C164.848 76.8209 168.237 78.6727 172.277 80.2017C176.315 81.7296 180.935 83.0977 186.137 84.2996C190.687 85.3203 194.377 86.3389 197.21 87.3565C200.041 88.3772 202.271 89.4885 203.896 90.6915C205.521 91.8965 206.637 93.1708 207.241 94.5124C207.844 95.8559 208.145 97.4083 208.145 99.1665V99.4445C208.145 103.15 206.593 106.113 203.491 108.336C200.386 110.56 196.197 111.671 190.917 111.671C184.803 111.671 179.337 110.583 174.522 108.406C169.704 106.231 164.935 103.104 160.211 99.0279L149.93 111.254C155.765 116.534 162.108 120.449 168.965 122.995C175.818 125.542 182.997 126.816 190.501 126.816C195.593 126.816 200.267 126.166 204.522 124.87ZM232.181 125.427H249.132V104.446L259.414 93.7483L281.505 125.427H300.956L270.806 81.9384L299.984 52.0662H279.559L249.132 84.5777V24H232.181V125.427ZM308.459 125.427H325.409V52.0665H308.459V125.427ZM307.762 40.811H325.963V24.8328H307.762V40.811ZM339.857 125.427H356.808V24H339.857V125.427ZM371.258 125.427H388.209V24H371.258V125.427Z" fill="#044150"/>
</g>
<text x="600" y="127" font-family="'Montserrat', sans-serif" font-weight="700" font-size="68" fill="#8a9bae" letter-spacing="-1">LMS</text>
<defs>
<clipPath id="clip0_dark_lms">
<rect width="424.065" height="125" fill="white" transform="translate(149.93 24)"/>
</clipPath>
</defs>
</svg>
