<?xml version="1.0" encoding="UTF-8"?>
<svg xmlns="http://www.w3.org/2000/svg" viewBox="0 0 48 48" width="48" height="48" fill="none"><path fill="#404040" d="M10.781 37c-.431 0-.781-.364-.781-.812V13.091C10 10.836 11.767 9 13.938 9h18.718C33.95 9 35 10.092 35 11.435v20.289c0 1.342-1.051 2.435-2.344 2.435H12.781c-.431 0-.781-.364-.781-.812s.35-.812.781-.812h19.875c.431 0 .782-.364.782-.811V11.435c0-.447-.35-.812-.782-.812H13.938c-1.31 0-2.376 1.108-2.376 2.469v23.096c0 .448-.35.812-.78.812"></path><path fill="#404040" d="M32.656 39.5H13.518C11.578 39.5 10 37.93 10 36s1.06-3.5 3-3.5a.78.78 0 0 1 .781.777c0 .429-.35.723-.781.723-1.078 0-1.437.927-1.437 2s.877 1.946 1.955 1.946h19.138a.78.78 0 0 0 .782-.777v-1.171c0-.43.63-.498 1.062-.498.431 0 .5.069.5.498v1.17a2.34 2.34 0 0 1-2.344 2.332"></path><path fill="#404040" d="M36.555 37h-21.74a.82.82 0 0 1-.815-.82c0-.454.365-.822.815-.822h21.74c.45 0 .815-.368.815-.82V15.462a.82.82 0 0 0-.815-.82h-1.63a.82.82 0 0 1-.815-.821c0-.453.365-.821.815-.821h1.63A2.456 2.456 0 0 1 39 15.462v19.076A2.456 2.456 0 0 1 36.555 37M13.74 15a.74.74 0 0 1-.74-.74v-1.52a.74.74 0 0 1 .74-.74h1.52a.74.74 0 0 1 0 1.48h-.78v.78a.74.74 0 0 1-.74.74m17.52 0a.74.74 0 0 1-.74-.74v-.78h-.78a.74.74 0 0 1 0-1.48h1.52a.74.74 0 0 1 .74.74v1.52a.74.74 0 0 1-.74.74"></path></svg>