<?xml version="1.0" encoding="UTF-8"?>
<svg xmlns="http://www.w3.org/2000/svg" viewBox="0 0 48 48" width="48" height="48" fill="none"><path fill="#404040" d="M38.879 35.288a.85.85 0 0 1-.85-.85V15.737a.28.28 0 0 0-.283-.284h-2.543a.848.848 0 1 1 0-1.699h2.543c1.093 0 1.982.89 1.982 1.983v18.701c0 .47-.38.85-.85.85m-29.451 0a.85.85 0 0 1-.85-.85V15.737c0-1.093.89-1.983 1.983-1.983h2.543a.848.848 0 1 1 0 1.7H10.56a.28.28 0 0 0-.283.283v18.701c0 .47-.38.85-.85.85"></path><path fill="#404040" d="M37.757 40H10.55A2.553 2.553 0 0 1 8 37.452v-3.014c0-.47.38-.85.85-.85h9.815c.385 0 .72.261.821.63l.215.804h8.926l.216-.804a.855.855 0 0 1 .82-.63h9.793c.47 0 .85.38.85.85v3.014A2.553 2.553 0 0 1 37.757 40M9.7 35.288v2.164c0 .47.38.85.85.85h27.208c.47 0 .85-.38.85-.85v-2.164h-8.292l-.215.804a.855.855 0 0 1-.821.629H19.05a.855.855 0 0 1-.821-.629l-.215-.804z"></path><path fill="#404040" d="M34.587 35.186c-.495 0-.894-.43-.894-.963V10.03a.64.64 0 0 0-.298-.103H14.91a.6.6 0 0 0-.298.103v24.193c0 .533-.4.963-.894.963s-.894-.43-.894-.963V9.58c0-.874 1.264-1.58 2.086-1.58h18.484c.822 0 2.085.706 2.085 1.58v24.643c0 .533-.399.963-.893.963"></path><path fill="#404040" d="M17.068 15.346a.85.85 0 0 1-.85-.85v-1.965c0-.47.38-.85.85-.85h1.965a.848.848 0 1 1 0 1.7h-1.116v1.115c0 .47-.38.85-.85.85m14.172 0a.85.85 0 0 1-.85-.85v-1.115h-1.116a.848.848 0 1 1 0-1.7h1.965c.47 0 .85.38.85.85v1.965c0 .47-.38.85-.85.85m-9.356 12.642a.85.85 0 0 1-.725-.408l-1.042-1.705-2.153-.023a.85.85 0 0 1-.736-1.257l1.994-3.659a.848.848 0 0 1 1.608.38.86.86 0 0 1-.102.413l-1.33 2.447 1.211.011c.295 0 .567.159.714.408l.521.85 1.41-2.583a.85.85 0 1 1 1.456.878l-2.079 3.817a.85.85 0 0 1-.725.442h-.022z"></path><path fill="#404040" d="M26.424 27.988h-.023a.85.85 0 0 1-.724-.442l-2.09-3.834a.848.848 0 0 1 .72-1.303c.31 0 .594.17.746.442l1.41 2.583.522-.85a.86.86 0 0 1 .713-.408l1.212-.011-.05-.09a.84.84 0 0 1 .34-1.15.84.84 0 0 1 1.15.34l.724 1.33a.87.87 0 0 1-.011.839.86.86 0 0 1-.725.419l-2.152.022-1.043 1.705a.85.85 0 0 1-.725.408zm1.286 4.06h-7.408a.848.848 0 1 1 0-1.699h7.408a.848.848 0 1 1 0 1.7"></path></svg>