<?xml version="1.0" encoding="UTF-8"?>
<svg xmlns="http://www.w3.org/2000/svg" viewBox="0 0 48 48" width="48" height="48" fill="none"><path fill="#404040" stroke="#FAFAFA" stroke-width=".2" d="M39.188 38.344H8.811a.843.843 0 0 1-.843-.844v-27c0-.467.377-.844.843-.844h30.376c.466 0 .843.377.843.844v27a.843.843 0 0 1-.843.844ZM9.656 36.656h28.688V11.344H9.656z"/><path fill="#404040" stroke="#FAFAFA" stroke-linejoin="round" stroke-width=".2" d="M11.253 30.228a.75.75 0 0 1 .656-.041l.089.043 3.463 2.024a.74.74 0 0 1 .367.645c0 .235-.107.45-.286.59l-.081.055-3.465 2.025a.7.7 0 0 1-.348.096l-.023-.003a.8.8 0 0 1-.284-.057l-.089-.043a.74.74 0 0 1-.371-.643v-4.045c0-.268.144-.51.373-.645zm1.216 2.014a.1.1 0 0 0-.1.1v1.108a.1.1 0 0 0 .15.087l.945-.552a.1.1 0 0 0 0-.173l-.924-.54a.1.1 0 0 0-.071-.03Z"/><path fill="#404040" stroke="#FAFAFA" stroke-width=".2" d="M18.122 35.486a.843.843 0 0 1-.844-.843v-3.494a.843.843 0 1 1 1.688 0v3.493a.843.843 0 0 1-.844.844Zm2.25 0a.843.843 0 0 1-.844-.843v-3.494a.843.843 0 1 1 1.688 0v3.493a.843.843 0 0 1-.844.844Z"/><path fill="#404040" d="m17.78 23.613 9.378-5.438a.45.45 0 0 1 .672.39v10.87a.45.45 0 0 1-.672.39l-9.378-5.432a.45.45 0 0 1 0-.78Z"/></svg>