<?xml version="1.0" encoding="UTF-8"?>
<svg xmlns="http://www.w3.org/2000/svg" viewBox="0 0 48 48" width="48" height="48" fill="none"><path fill="#404040" d="M18.085 26.612A2.614 2.614 0 0 1 15.474 24a2.614 2.614 0 0 1 2.611-2.611A2.614 2.614 0 0 1 20.697 24a2.614 2.614 0 0 1-2.612 2.612m0-3.723a1.113 1.113 0 0 0 0 2.223 1.113 1.113 0 0 0 0-2.223m15.692-7.105a2.614 2.614 0 0 1-2.611-2.612 2.614 2.614 0 0 1 2.611-2.611 2.614 2.614 0 0 1 2.611 2.611 2.614 2.614 0 0 1-2.611 2.612m0-3.722a1.113 1.113 0 0 0 0 2.223 1.113 1.113 0 0 0 0-2.223m-7.915 3.722a2.614 2.614 0 0 1-2.612-2.612 2.614 2.614 0 0 1 2.611-2.611 2.614 2.614 0 0 1 2.612 2.611 2.614 2.614 0 0 1-2.611 2.612m0-3.722a1.113 1.113 0 0 0 0 2.223 1.113 1.113 0 0 0 0-2.223m9.776 26.188a2.614 2.614 0 0 1-2.611-2.612 2.614 2.614 0 0 1 2.611-2.611 2.614 2.614 0 0 1 2.612 2.611 2.614 2.614 0 0 1-2.612 2.612m0-3.723a1.113 1.113 0 0 0 0 2.223 1.113 1.113 0 0 0 0-2.223m-8.5 1.296a2.614 2.614 0 0 1-2.611-2.611 2.614 2.614 0 0 1 2.611-2.612 2.614 2.614 0 0 1 2.612 2.612 2.614 2.614 0 0 1-2.612 2.611m0-3.723a1.113 1.113 0 0 0 0 2.223 1.113 1.113 0 0 0 0-2.223M14.75 19.75c-2.757 0-5-2.243-5-5s2.243-5 5-5 5 2.243 5 5-2.243 5-5 5m0-8.5c-1.93 0-3.5 1.57-3.5 3.5s1.57 3.5 3.5 3.5 3.5-1.57 3.5-3.5-1.57-3.5-3.5-3.5"></path><path fill="#404040" d="M17.532 18.71a.75.75 0 0 1-.695-.468 2.24 2.24 0 0 0-2.087-1.405c-.921 0-1.74.551-2.087 1.405a.75.75 0 0 1-1.39-.565 3.74 3.74 0 0 1 3.477-2.34c1.534 0 2.899.918 3.477 2.34a.75.75 0 0 1-.695 1.033"></path><path fill="#404040" d="M14.75 16.836a2.21 2.21 0 0 1-2.207-2.207 2.21 2.21 0 0 1 2.207-2.207 2.21 2.21 0 0 1 2.207 2.207 2.21 2.21 0 0 1-2.207 2.207m0-2.914a.708.708 0 1 0 .002 1.416.708.708 0 0 0-.002-1.416m0 24.328c-2.757 0-5-2.243-5-5s2.243-5 5-5 5 2.243 5 5-2.243 5-5 5m0-8.5c-1.93 0-3.5 1.57-3.5 3.5s1.57 3.5 3.5 3.5 3.5-1.57 3.5-3.5-1.57-3.5-3.5-3.5"></path><path fill="#404040" d="M17.532 37.21a.75.75 0 0 1-.695-.468 2.24 2.24 0 0 0-2.087-1.405c-.921 0-1.74.551-2.087 1.405a.751.751 0 0 1-1.39-.565 3.74 3.74 0 0 1 3.477-2.34c1.534 0 2.899.918 3.477 2.34a.75.75 0 0 1-.695 1.033"></path><path fill="#404040" d="M14.75 35.336a2.21 2.21 0 0 1-2.207-2.207 2.21 2.21 0 0 1 2.207-2.207 2.21 2.21 0 0 1 2.207 2.207 2.21 2.21 0 0 1-2.207 2.207m0-2.914a.708.708 0 1 0 .002 1.416.708.708 0 0 0-.002-1.416m15.44-6.627q-.269.24-.5.525c-.12.15-.24.305-.345.47l-.18.09-10.28 5.14a.743.743 0 0 1-1.005-.335.75.75 0 0 1 .335-1.005l10.28-5.14.62-.31q.03-.016.06-.025a.746.746 0 0 1 .945.355v.005c.04.075.06.15.07.23m-3.551-4.35a.74.74 0 0 1-.335-.08l-8.09-4.044a.75.75 0 0 1 .672-1.342l8.089 4.044a.75.75 0 0 1-.337 1.422M17.46 23a.75.75 0 0 1-.706-.498l-1.25-3.51a.75.75 0 1 1 1.413-.504l1.25 3.51A.75.75 0 0 1 17.46 23m13.04-1a.75.75 0 0 1-.719-.965l2.338-5.805a.75.75 0 0 1 1.437.43l-2.338 5.805A.75.75 0 0 1 30.5 22m-5.22 11.88h-6.285a.75.75 0 1 1 0-1.5h6.285a.75.75 0 1 1 0 1.5m9.99.685a.75.75 0 0 1-.734-.6l-1.122-5.08a.75.75 0 1 1 1.47-.3l1.122 5.08a.75.75 0 0 1-.736.9M19 15.426a.751.751 0 0 1-.16-1.483l5.045-1.105a.75.75 0 0 1 .32 1.465l-5.044 1.105a1 1 0 0 1-.162.018"></path></svg>