<?xml version="1.0" encoding="UTF-8"?>
<svg xmlns="http://www.w3.org/2000/svg" viewBox="0 0 48 48" width="48" height="48" fill="none"><path fill="#404040" d="M37.935 19.068h-27.2a.82.82 0 0 1-.82-.82v-3.78a2.464 2.464 0 0 1 2.46-2.462h23.92a2.464 2.464 0 0 1 2.46 2.461v3.78a.82.82 0 0 1-.82.821m-26.38-1.64h25.56v-2.96a.82.82 0 0 0-.82-.821h-23.92a.82.82 0 0 0-.82.82z"></path><path fill="#404040" d="M37.936 24.418a.82.82 0 0 1-.82-.82v-5.35a.82.82 0 0 1 1.64 0v5.35a.82.82 0 0 1-.82.82m-14.35 13.124H12.375a2.464 2.464 0 0 1-2.46-2.46V18.248a.82.82 0 0 1 1.64 0V35.08c0 .453.368.82.82.82h11.21a.82.82 0 0 1 0 1.641"></path><path fill="#404040" d="M33.703 23.313H14.836a.82.82 0 1 1 0-1.641h18.867a.82.82 0 1 1 0 1.64m-8.476 4.376H14.836a.82.82 0 1 1 0-1.641h10.39a.82.82 0 1 1 0 1.64m-3.216 4.376h-7.174a.82.82 0 1 1 0-1.641h7.175a.82.82 0 1 1 0 1.64M14.117 15.74a.82.82 0 0 1-.82-.82v-4.186a.82.82 0 0 1 1.64 0v4.185a.82.82 0 0 1-.82.82m5.109.001a.82.82 0 0 1-.82-.82v-4.186a.82.82 0 0 1 1.64 0v4.185a.82.82 0 0 1-.82.82m5.109.001a.82.82 0 0 1-.82-.82v-4.186a.82.82 0 0 1 1.64 0v4.185a.82.82 0 0 1-.82.82m5.11.001a.82.82 0 0 1-.82-.82v-4.186a.82.82 0 0 1 1.64 0v4.185a.82.82 0 0 1-.82.82"></path></svg>