<?xml version="1.0" encoding="UTF-8"?>
<svg xmlns="http://www.w3.org/2000/svg" viewBox="0 0 48 48" width="48" height="48" fill="none"><path fill="#404040" d="M22.5 40.493a.87.87 0 0 1-.658-.3l-3.518-4.096H9.25c-1.24 0-2.25-1.02-2.25-2.272V18.273C7 17.02 8.01 16 9.25 16H10a.864.864 0 1 1 0 1.73h-.75a.53.53 0 0 0-.52.543v15.552c0 .3.231.542.52.542h9.472c.253 0 .49.11.657.3L22.5 38.3l3.132-3.634c.162-.19.404-.3.658-.3h9.466c.288 0 .513-.237.513-.542v-9.772a.864.864 0 1 1 1.731 0v9.772c0 1.252-1.01 2.272-2.244 2.272h-9.068l-3.53 4.096a.87.87 0 0 1-.658.3"/><path fill="#404040" d="M14.5 29a2.501 2.501 0 0 1 0-5 2.501 2.501 0 0 1 0 5m0-3.553a1.06 1.06 0 0 0-1.058 1.058 1.06 1.06 0 0 0 1.058 1.058 1.06 1.06 0 0 0 1.058-1.058 1.06 1.06 0 0 0-1.058-1.058m8 3.553a2.501 2.501 0 0 1 0-5 2.501 2.501 0 0 1 0 5m0-3.553a1.06 1.06 0 0 0-1.058 1.058 1.06 1.06 0 0 0 1.058 1.058 1.06 1.06 0 0 0 1.058-1.058 1.06 1.06 0 0 0-1.058-1.058m8 3.553a2.501 2.501 0 0 1 0-5 2.501 2.501 0 0 1 0 5m0-3.553a1.06 1.06 0 0 0-1.058 1.058 1.06 1.06 0 0 0 1.058 1.058 1.06 1.06 0 0 0 1.058-1.058 1.06 1.06 0 0 0-1.058-1.058"/><path fill="#404040" d="M38.5 20a8.5 8.5 0 1 1 0-17 8.5 8.5 0 0 1 0 17m0-15.27a6.77 6.77 0 1 0 0 13.54 6.77 6.77 0 0 0 0-13.54"/><path fill="#404040" d="M36.65 14.62a.87.87 0 0 1-.614-1.484l1.236-1.236V8.076a.865.865 0 0 1 1.73 0v4.11c0 .23-.092.45-.254.613l-1.484 1.484a.86.86 0 0 1-.614.337"/></svg>