<?xml version="1.0" encoding="UTF-8"?>
<svg xmlns="http://www.w3.org/2000/svg" viewBox="0 0 48 48" width="48" height="48" fill="none"><path d="M20.9297 27.1666L35.7399 11.0439" stroke="#404040" stroke-width="1.5" stroke-linecap="round" stroke-linejoin="round"></path><path d="M31.625 16.6626L34.6306 17.5691L39.9518 12.0229L35.953 11.1416" stroke="#404040" stroke-width="1.5" stroke-linecap="round" stroke-linejoin="round"></path><path d="M30.6555 16.1099L29.5986 12.8049L34.9199 7.25879L35.9897 11.0543" stroke="#404040" stroke-width="1.5" stroke-linecap="round" stroke-linejoin="round"></path><path d="M27.8208 19.3856C25.9751 17.5535 23.5016 16.4739 20.89 16.3605C18.2784 16.2471 15.7189 17.1082 13.7181 18.7733C11.7174 20.4384 10.4212 22.7861 10.0861 25.3519C9.751 27.9177 10.4014 30.5144 11.9087 32.6282C13.4159 34.742 15.67 36.2188 18.225 36.7663C20.7799 37.3138 23.4495 36.892 25.7052 35.5846C27.9609 34.2771 29.6385 32.1792 30.4058 29.706C31.1732 27.2329 30.9744 24.5648 29.8488 22.2298" stroke="#404040" stroke-width="1.5" stroke-linecap="round" stroke-linejoin="round"></path><path d="M24.2922 22.8453C23.3878 21.9527 22.196 21.4018 20.9238 21.2884C19.6517 21.175 18.3796 21.5062 17.3285 22.2244C16.2774 22.9426 15.5138 24.0025 15.1702 25.22C14.8266 26.4375 14.9248 27.7356 15.4477 28.8889C15.9706 30.0422 16.8852 30.9778 18.0326 31.5331C19.18 32.0885 20.4878 32.2285 21.7287 31.9289C22.9696 31.6294 24.0652 30.9091 24.8253 29.8932C25.5854 28.8773 25.9619 27.63 25.8894 26.368" stroke="#404040" stroke-width="1.5" stroke-linecap="round" stroke-linejoin="round"></path></svg>