<?xml version="1.0" encoding="UTF-8"?>
<svg xmlns="http://www.w3.org/2000/svg" viewBox="0 0 48 48" width="48" height="48" fill="none"><path fill="#404040" d="M29.127 15.904h-6.144a.798.798 0 1 1 0-1.598h6.144a.798.798 0 1 1 0 1.598M37 34a.8.8 0 0 1-.8-.8l-.012-14.502a.798.798 0 1 1 1.599 0l.012 14.503A.8.8 0 0 1 37 34m-25.591.566a.8.8 0 0 1-.8-.8v-7.774a.798.798 0 1 1 1.6 0v7.775a.8.8 0 0 1-.8.799"></path><path fill="#404040" d="M36.998 39h-25.6A2.4 2.4 0 0 1 9 36.602v-2.835a.8.8 0 0 1 .8-.8h9.234c.363 0 .677.246.773.592l.203.757h8.398l.202-.757a.8.8 0 0 1 .773-.591h9.214a.8.8 0 0 1 .8.8v2.834a2.4 2.4 0 0 1-2.4 2.398m-26.4-4.434v2.036a.8.8 0 0 0 .8.8h25.6a.8.8 0 0 0 .8-.8v-2.035h-7.802l-.202.756a.8.8 0 0 1-.773.592h-9.624a.804.804 0 0 1-.773-.592l-.202-.757zm26.391-2.829h-25.58a.798.798 0 1 1 0-1.599h25.58a.798.798 0 1 1 0 1.599M22.632 26H10.148a.75.75 0 0 1-.758-.748V9.748c0-.414.338-.748.758-.748h12.484c.42 0 .758.334.758.748v15.504a.75.75 0 0 1-.758.748m-11.727-1.996a.5.5 0 0 0 .5.5h9.97a.5.5 0 0 0 .5-.5V10.996a.5.5 0 0 0-.5-.5h-9.97a.5.5 0 0 0-.5.5z"></path><path fill="#404040" d="M19.732 14.754h-6.991a.798.798 0 1 1 0-1.6h6.991a.798.798 0 1 1 0 1.6m0 3.368h-6.991a.798.798 0 1 1 0-1.6h6.991a.798.798 0 1 1 0 1.6m0 3.362h-6.991a.798.798 0 1 1 0-1.599h6.991a.798.798 0 1 1 0 1.599M33.89 20a5.505 5.505 0 0 1-5.5-5.5c0-3.034 2.466-5.5 5.5-5.5s5.5 2.466 5.5 5.5-2.466 5.5-5.5 5.5m0-9.423a3.93 3.93 0 0 0-3.923 3.923 3.93 3.93 0 0 0 3.923 3.923 3.93 3.93 0 0 0 3.922-3.923 3.926 3.926 0 0 0-3.922-3.923"></path><path fill="#404040" d="M33.117 16.774a.9.9 0 0 1-.633-.272l-1.13-1.168c-.353-.365-.507-.702-.154-1.06.352-.365.653-.281 1 .083l.917.917 1.083-1 1-1c.352-.365.653-.365 1 0 .352.364-.022.725-.375 1.083l-2.074 2.145a.9.9 0 0 1-.634.271"></path></svg>