<?xml version="1.0" encoding="UTF-8"?>
<svg xmlns="http://www.w3.org/2000/svg" viewBox="0 0 48 48" width="48" height="48" fill="none"><path fill="#404040" d="M39.188 38.89h-5.063a.844.844 0 0 1 0-1.688h4.219v-1.17a3.99 3.99 0 0 0-3.983-3.994 4.02 4.02 0 0 0-3.214 1.622.843.843 0 1 1-1.356-1.004 5.71 5.71 0 0 1 4.57-2.305c3.127 0 5.67 2.548 5.67 5.68v2.014a.844.844 0 0 1-.843.844"></path><path fill="#404040" d="M34.357 32.043c-2.14 0-3.88-1.74-3.88-3.88 0-2.141 1.74-3.882 3.88-3.882s3.881 1.741 3.881 3.881-1.74 3.881-3.88 3.881m0-6.074c-1.21 0-2.193.984-2.193 2.193s.984 2.194 2.193 2.194 2.194-.984 2.194-2.194-.984-2.193-2.194-2.193M13.875 38.89H8.813a.844.844 0 0 1-.844-.845v-2.013c0-3.133 2.543-5.681 5.67-5.681 1.793 0 3.502.861 4.57 2.305a.843.843 0 1 1-1.356 1.004 4.02 4.02 0 0 0-3.214-1.622 3.99 3.99 0 0 0-3.983 3.994v1.17h4.219a.844.844 0 0 1 0 1.687"></path><path fill="#404040" d="M13.643 32.043a3.885 3.885 0 0 1-3.881-3.88 3.885 3.885 0 0 1 3.88-3.882c2.14 0 3.882 1.741 3.882 3.881s-1.742 3.881-3.881 3.881m0-6.074c-1.21 0-2.194.984-2.194 2.193s.984 2.194 2.194 2.194 2.193-.984 2.193-2.194-.984-2.193-2.193-2.193m13.333-8.154a.8.8 0 0 1-.334-.07L24 16.606l-2.642 1.14a.843.843 0 0 1-1.174-.854l.267-2.864-1.9-2.16a.844.844 0 0 1 .449-1.38l2.807-.631 1.467-2.475a.844.844 0 0 1 1.451 0l1.468 2.475 2.807.63a.845.845 0 0 1 .448 1.38l-1.9 2.161.267 2.864a.843.843 0 0 1-.84.922m-6.218-5.993 1.2 1.365a.85.85 0 0 1 .207.636l-.169 1.81 1.67-.72a.84.84 0 0 1 .668 0l1.67.72-.17-1.81a.84.84 0 0 1 .207-.636l1.2-1.365-1.773-.399a.85.85 0 0 1-.54-.393L24 9.467l-.928 1.563a.85.85 0 0 1-.54.393zm-8.569 9.209a.844.844 0 0 1-.378-1.598l5.625-2.812a.844.844 0 0 1 .755 1.51l-5.625 2.812a.84.84 0 0 1-.377.089m3.749-9.562a.8.8 0 0 1-.307-.059l-4.312-1.687a.844.844 0 0 1 .614-1.571l4.313 1.687a.844.844 0 0 1-.308 1.63m-7.125 3.937a.844.844 0 0 1-.056-1.686l8.438-.562a.844.844 0 0 1 .112 1.684l-8.437.563zm27 5.624a.84.84 0 0 1-.377-.088L29.81 18.13a.844.844 0 1 1 .755-1.51l5.625 2.812a.844.844 0 0 1-.378 1.599m-3.75-9.562a.843.843 0 0 1-.307-1.63l4.312-1.687a.845.845 0 0 1 .616 1.57L32.37 11.41a.8.8 0 0 1-.308.059m7.127 3.937-.058-.002-8.437-.562a.844.844 0 0 1-.786-.898.85.85 0 0 1 .898-.786l8.437.562a.844.844 0 0 1-.054 1.686"></path></svg>