<?xml version="1.0" encoding="UTF-8"?>
<svg xmlns="http://www.w3.org/2000/svg" viewBox="0 0 48 48" width="48" height="48" fill="none"><path fill="#404040" d="M37.044 20.398H14.886c-2.418 0-4.386-2.22-4.386-4.95 0-2.727 1.968-4.948 4.386-4.948h22.158c.467 0 .844.426.844.952s-.377.952-.844.952H14.886c-1.488 0-2.698 1.366-2.698 3.045 0 1.68 1.21 3.045 2.698 3.045h22.158c.467 0 .844.426.844.952s-.377.952-.844.952"></path><path fill="#404040" d="M35.74 20.398c-.467 0-.845-.426-.845-.952v-7.994c0-.526.378-.952.844-.952.467 0 .844.426.844.952v7.994c0 .526-.377.952-.844.952"></path><path fill="#404040" d="M35.433 16.06H17.275c-.635 0-1.15-.425-1.15-.951s.515-.952 1.15-.952h18.158c.636 0 1.15.426 1.15.952s-.514.952-1.15.952m-1.956 11.995H9.657a1.97 1.97 0 0 1-1.97-1.969v-5.18a1.97 1.97 0 0 1 1.97-1.97h23.82a1.97 1.97 0 0 1 1.969 1.97v5.18a1.97 1.97 0 0 1-1.969 1.97m-23.82-7.432a.28.28 0 0 0-.282.282v5.18c0 .156.126.282.281.282h23.821a.28.28 0 0 0 .281-.281v-5.181a.28.28 0 0 0-.281-.282z"></path><path fill="#404040" d="M13.031 28.056a.843.843 0 0 1-.844-.844v-7.43a.843.843 0 1 1 1.688 0v7.43a.843.843 0 0 1-.844.844m2.977 0a.843.843 0 0 1-.844-.844v-7.43a.843.843 0 1 1 1.688 0v7.43a.843.843 0 0 1-.844.844m14.038 0a.843.843 0 0 1-.844-.844v-7.43a.843.843 0 1 1 1.688 0v7.43a.843.843 0 0 1-.844.844m-2.952 0a.843.843 0 0 1-.844-.844v-7.43a.843.843 0 1 1 1.688 0v7.43a.843.843 0 0 1-.844.844"></path><path fill="#404040" d="M15.45 35.688h-.663c-2.42 0-3.725-2.069-3.725-4.488 0-1.172.458-2.275 1.289-3.106a4.35 4.35 0 0 1 3.1-1.282h23.295a.843.843 0 1 1 0 1.688H15.45a2.68 2.68 0 0 0-1.907.788 2.7 2.7 0 0 0-.794 1.912c0 1.488.794 2.8 2.037 2.8h.664a.843.843 0 1 1 0 1.688m23.296-.101H25.649a.843.843 0 1 1 0-1.687h13.097a.843.843 0 1 1 0 1.687"></path><path fill="#404040" d="M37.44 35.588a.843.843 0 0 1-.843-.844v-7.085a.843.843 0 1 1 1.688 0v7.085a.843.843 0 0 1-.844.844"></path><path fill="#404040" d="M37.03 32.163H25.255c-.383 0-.692-.378-.692-.844s.31-.844.692-.844H37.03c.383 0 .692.377.692.844s-.31.844-.692.844"></path></svg>