<?xml version="1.0" encoding="UTF-8"?>
<svg width="16" height="16" viewBox="0 0 16 16" fill="currentColor" xmlns="http://www.w3.org/2000/svg"><path d="M2.95322 4.57279C3.84777 4.57279 4.57294 3.84762 4.57294 2.95307C4.57294 2.05852 3.84777 1.33334 2.95322 1.33334C2.05867 1.33334 1.3335 2.05852 1.3335 2.95307C1.3335 3.84762 2.05867 4.57279 2.95322 4.57279Z"/><path d="M6.05633 5.76981H8.74074V6.99955C8.74074 6.99955 9.46919 5.54265 11.4512 5.54265C13.2192 5.54265 14.6839 6.41363 14.6839 9.06843V14.6667H11.9021V9.74679C11.9021 8.18071 11.066 8.00846 10.4288 8.00846C9.10661 8.00846 8.88025 9.14896 8.88025 9.95107V14.6667H6.05633V5.76981Z"/><path d="M1.54127 5.76982H4.36518V14.6667H1.54127V5.76982Z"/></svg>