<?xml version="1.0" encoding="UTF-8"?>
<svg xmlns="http://www.w3.org/2000/svg" style="display:none">
  <symbol id="arrow-right" viewBox="0 0 16 16">
    <path d="M3 8H13M13 8L9 4M13 8L9 12" stroke="currentColor" stroke-width="1.2" stroke-linecap="round" stroke-linejoin="round"/>
  </symbol>
  <symbol id="bell" viewBox="0 0 16 16">
    <path d="M12 6C12 3.79086 10.2091 2 8 2C5.79086 2 4 3.79086 4 6V10L2.5 12H13.5L12 10V6Z" stroke="currentColor" stroke-width="1.2" stroke-linejoin="round"/><path d="M6.5 12.5C6.5 13.3284 7.17157 14 8 14C8.82843 14 9.5 13.3284 9.5 12.5" stroke="currentColor" stroke-width="1.2"/>
  </symbol>
  <symbol id="bookmark" viewBox="0 0 16 16">
    <path d="M4 2.5H12V13.5L8 11L4 13.5V2.5Z" stroke="currentColor" stroke-width="1.2" stroke-linejoin="round"/>
  </symbol>
  <symbol id="calendar" viewBox="0 0 16 16">
    <rect x="2" y="3" width="12" height="11" rx="1.5" stroke="currentColor" stroke-width="1.2"/><path d="M2 6.5H14" stroke="currentColor" stroke-width="1.2"/><path d="M5.5 1.5V4" stroke="currentColor" stroke-width="1.2" stroke-linecap="round"/><path d="M10.5 1.5V4" stroke="currentColor" stroke-width="1.2" stroke-linecap="round"/>
  </symbol>
  <symbol id="check" viewBox="0 0 16 16">
    <path d="M3.5 8.5L6.5 11.5L12.5 4.5" stroke="currentColor" stroke-width="1.5" stroke-linecap="round" stroke-linejoin="round"/>
  </symbol>
  <symbol id="chevron-down" viewBox="0 0 16 16">
    <path d="M13 6L8 11L3 6" stroke="currentColor" stroke-linecap="round" stroke-linejoin="round"/>
  </symbol>
  <symbol id="chevron-right" viewBox="0 0 16 16">
    <path d="M6 3L11 8L6 13" stroke="currentColor" stroke-linecap="round" stroke-linejoin="round"/>
  </symbol>
  <symbol id="clock" viewBox="0 0 16 16">
    <circle cx="8" cy="8" r="6.5" stroke="currentColor" stroke-width="1.2"/><path d="M8 4.5V8L10.5 10.5" stroke="currentColor" stroke-width="1.2" stroke-linecap="round" stroke-linejoin="round"/>
  </symbol>
  <symbol id="close" viewBox="0 0 16 16">
    <path d="M12 4L4 12" stroke="currentColor" stroke-width="1.2" stroke-linecap="round" stroke-linejoin="round"/><path d="M4 4L12 12" stroke="currentColor" stroke-width="1.2" stroke-linecap="round" stroke-linejoin="round"/>
  </symbol>
  <symbol id="copy" viewBox="0 0 16 16">
    <rect x="5" y="5" width="9" height="9" rx="1.5" stroke="currentColor" stroke-width="1.2"/><path d="M11 3H3.5C2.94772 3 2.5 3.44772 2.5 4V11" stroke="currentColor" stroke-width="1.2" stroke-linecap="round"/>
  </symbol>
  <symbol id="document" viewBox="0 0 16 16">
    <path d="M4 1.5H9.5L12.5 4.5V14.5H4C3.44772 14.5 3 14.0523 3 13.5V2.5C3 1.94772 3.44772 1.5 4 1.5Z" stroke="currentColor" stroke-width="1.2" stroke-linejoin="round"/><path d="M9 1.5V5H12.5" stroke="currentColor" stroke-width="1.2" stroke-linejoin="round"/>
  </symbol>
  <symbol id="download" viewBox="0 0 16 16">
    <path d="M8 2V10M8 10L5 7M8 10L11 7" stroke="currentColor" stroke-width="1.2" stroke-linecap="round" stroke-linejoin="round"/><path d="M2 12V13H14V12" stroke="currentColor" stroke-width="1.2" stroke-linecap="round" stroke-linejoin="round"/>
  </symbol>
  <symbol id="external-link" viewBox="0 0 16 16">
    <path d="M5 3H13V11" stroke="currentColor" stroke-width="1.2" stroke-linecap="round" stroke-linejoin="round"/><path d="M13 3L3 13" stroke="currentColor" stroke-width="1.2" stroke-linecap="round"/>
  </symbol>
  <symbol id="eye" viewBox="0 0 16 16">
    <path d="M1.5 8C1.5 8 4 3.5 8 3.5C12 3.5 14.5 8 14.5 8C14.5 8 12 12.5 8 12.5C4 12.5 1.5 8 1.5 8Z" stroke="currentColor" stroke-width="1.2"/><circle cx="8" cy="8" r="2" stroke="currentColor" stroke-width="1.2"/>
  </symbol>
  <symbol id="feature-assignments" viewBox="0 0 48 48">
    <path fill="#404040" d="M29.127 15.904h-6.144a.798.798 0 1 1 0-1.598h6.144a.798.798 0 1 1 0 1.598M37 34a.8.8 0 0 1-.8-.8l-.012-14.502a.798.798 0 1 1 1.599 0l.012 14.503A.8.8 0 0 1 37 34m-25.591.566a.8.8 0 0 1-.8-.8v-7.774a.798.798 0 1 1 1.6 0v7.775a.8.8 0 0 1-.8.799"></path><path fill="#404040" d="M36.998 39h-25.6A2.4 2.4 0 0 1 9 36.602v-2.835a.8.8 0 0 1 .8-.8h9.234c.363 0 .677.246.773.592l.203.757h8.398l.202-.757a.8.8 0 0 1 .773-.591h9.214a.8.8 0 0 1 .8.8v2.834a2.4 2.4 0 0 1-2.4 2.398m-26.4-4.434v2.036a.8.8 0 0 0 .8.8h25.6a.8.8 0 0 0 .8-.8v-2.035h-7.802l-.202.756a.8.8 0 0 1-.773.592h-9.624a.804.804 0 0 1-.773-.592l-.202-.757zm26.391-2.829h-25.58a.798.798 0 1 1 0-1.599h25.58a.798.798 0 1 1 0 1.599M22.632 26H10.148a.75.75 0 0 1-.758-.748V9.748c0-.414.338-.748.758-.748h12.484c.42 0 .758.334.758.748v15.504a.75.75 0 0 1-.758.748m-11.727-1.996a.5.5 0 0 0 .5.5h9.97a.5.5 0 0 0 .5-.5V10.996a.5.5 0 0 0-.5-.5h-9.97a.5.5 0 0 0-.5.5z"></path><path fill="#404040" d="M19.732 14.754h-6.991a.798.798 0 1 1 0-1.6h6.991a.798.798 0 1 1 0 1.6m0 3.368h-6.991a.798.798 0 1 1 0-1.6h6.991a.798.798 0 1 1 0 1.6m0 3.362h-6.991a.798.798 0 1 1 0-1.599h6.991a.798.798 0 1 1 0 1.599M33.89 20a5.505 5.505 0 0 1-5.5-5.5c0-3.034 2.466-5.5 5.5-5.5s5.5 2.466 5.5 5.5-2.466 5.5-5.5 5.5m0-9.423a3.93 3.93 0 0 0-3.923 3.923 3.93 3.93 0 0 0 3.923 3.923 3.93 3.93 0 0 0 3.922-3.923 3.926 3.926 0 0 0-3.922-3.923"></path><path fill="#404040" d="M33.117 16.774a.9.9 0 0 1-.633-.272l-1.13-1.168c-.353-.365-.507-.702-.154-1.06.352-.365.653-.281 1 .083l.917.917 1.083-1 1-1c.352-.365.653-.365 1 0 .352.364-.022.725-.375 1.083l-2.074 2.145a.9.9 0 0 1-.634.271"></path>
  </symbol>
  <symbol id="feature-certificate" viewBox="0 0 48 48">
    <path fill="#404040" d="M38.879 35.288a.85.85 0 0 1-.85-.85V15.737a.28.28 0 0 0-.283-.284h-2.543a.848.848 0 1 1 0-1.699h2.543c1.093 0 1.982.89 1.982 1.983v18.701c0 .47-.38.85-.85.85m-29.451 0a.85.85 0 0 1-.85-.85V15.737c0-1.093.89-1.983 1.983-1.983h2.543a.848.848 0 1 1 0 1.7H10.56a.28.28 0 0 0-.283.283v18.701c0 .47-.38.85-.85.85"></path><path fill="#404040" d="M37.757 40H10.55A2.553 2.553 0 0 1 8 37.452v-3.014c0-.47.38-.85.85-.85h9.815c.385 0 .72.261.821.63l.215.804h8.926l.216-.804a.855.855 0 0 1 .82-.63h9.793c.47 0 .85.38.85.85v3.014A2.553 2.553 0 0 1 37.757 40M9.7 35.288v2.164c0 .47.38.85.85.85h27.208c.47 0 .85-.38.85-.85v-2.164h-8.292l-.215.804a.855.855 0 0 1-.821.629H19.05a.855.855 0 0 1-.821-.629l-.215-.804z"></path><path fill="#404040" d="M34.587 35.186c-.495 0-.894-.43-.894-.963V10.03a.64.64 0 0 0-.298-.103H14.91a.6.6 0 0 0-.298.103v24.193c0 .533-.4.963-.894.963s-.894-.43-.894-.963V9.58c0-.874 1.264-1.58 2.086-1.58h18.484c.822 0 2.085.706 2.085 1.58v24.643c0 .533-.399.963-.893.963"></path><path fill="#404040" d="M17.068 15.346a.85.85 0 0 1-.85-.85v-1.965c0-.47.38-.85.85-.85h1.965a.848.848 0 1 1 0 1.7h-1.116v1.115c0 .47-.38.85-.85.85m14.172 0a.85.85 0 0 1-.85-.85v-1.115h-1.116a.848.848 0 1 1 0-1.7h1.965c.47 0 .85.38.85.85v1.965c0 .47-.38.85-.85.85m-9.356 12.642a.85.85 0 0 1-.725-.408l-1.042-1.705-2.153-.023a.85.85 0 0 1-.736-1.257l1.994-3.659a.848.848 0 0 1 1.608.38.86.86 0 0 1-.102.413l-1.33 2.447 1.211.011c.295 0 .567.159.714.408l.521.85 1.41-2.583a.85.85 0 1 1 1.456.878l-2.079 3.817a.85.85 0 0 1-.725.442h-.022z"></path><path fill="#404040" d="M26.424 27.988h-.023a.85.85 0 0 1-.724-.442l-2.09-3.834a.848.848 0 0 1 .72-1.303c.31 0 .594.17.746.442l1.41 2.583.522-.85a.86.86 0 0 1 .713-.408l1.212-.011-.05-.09a.84.84 0 0 1 .34-1.15.84.84 0 0 1 1.15.34l.724 1.33a.87.87 0 0 1-.011.839.86.86 0 0 1-.725.419l-2.152.022-1.043 1.705a.85.85 0 0 1-.725.408zm1.286 4.06h-7.408a.848.848 0 1 1 0-1.699h7.408a.848.848 0 1 1 0 1.7"></path>
  </symbol>
  <symbol id="feature-community" viewBox="0 0 48 48">
    <path fill="#404040" d="M18.085 26.612A2.614 2.614 0 0 1 15.474 24a2.614 2.614 0 0 1 2.611-2.611A2.614 2.614 0 0 1 20.697 24a2.614 2.614 0 0 1-2.612 2.612m0-3.723a1.113 1.113 0 0 0 0 2.223 1.113 1.113 0 0 0 0-2.223m15.692-7.105a2.614 2.614 0 0 1-2.611-2.612 2.614 2.614 0 0 1 2.611-2.611 2.614 2.614 0 0 1 2.611 2.611 2.614 2.614 0 0 1-2.611 2.612m0-3.722a1.113 1.113 0 0 0 0 2.223 1.113 1.113 0 0 0 0-2.223m-7.915 3.722a2.614 2.614 0 0 1-2.612-2.612 2.614 2.614 0 0 1 2.611-2.611 2.614 2.614 0 0 1 2.612 2.611 2.614 2.614 0 0 1-2.611 2.612m0-3.722a1.113 1.113 0 0 0 0 2.223 1.113 1.113 0 0 0 0-2.223m9.776 26.188a2.614 2.614 0 0 1-2.611-2.612 2.614 2.614 0 0 1 2.611-2.611 2.614 2.614 0 0 1 2.612 2.611 2.614 2.614 0 0 1-2.612 2.612m0-3.723a1.113 1.113 0 0 0 0 2.223 1.113 1.113 0 0 0 0-2.223m-8.5 1.296a2.614 2.614 0 0 1-2.611-2.611 2.614 2.614 0 0 1 2.611-2.612 2.614 2.614 0 0 1 2.612 2.612 2.614 2.614 0 0 1-2.612 2.611m0-3.723a1.113 1.113 0 0 0 0 2.223 1.113 1.113 0 0 0 0-2.223M14.75 19.75c-2.757 0-5-2.243-5-5s2.243-5 5-5 5 2.243 5 5-2.243 5-5 5m0-8.5c-1.93 0-3.5 1.57-3.5 3.5s1.57 3.5 3.5 3.5 3.5-1.57 3.5-3.5-1.57-3.5-3.5-3.5"></path><path fill="#404040" d="M17.532 18.71a.75.75 0 0 1-.695-.468 2.24 2.24 0 0 0-2.087-1.405c-.921 0-1.74.551-2.087 1.405a.75.75 0 0 1-1.39-.565 3.74 3.74 0 0 1 3.477-2.34c1.534 0 2.899.918 3.477 2.34a.75.75 0 0 1-.695 1.033"></path><path fill="#404040" d="M14.75 16.836a2.21 2.21 0 0 1-2.207-2.207 2.21 2.21 0 0 1 2.207-2.207 2.21 2.21 0 0 1 2.207 2.207 2.21 2.21 0 0 1-2.207 2.207m0-2.914a.708.708 0 1 0 .002 1.416.708.708 0 0 0-.002-1.416m0 24.328c-2.757 0-5-2.243-5-5s2.243-5 5-5 5 2.243 5 5-2.243 5-5 5m0-8.5c-1.93 0-3.5 1.57-3.5 3.5s1.57 3.5 3.5 3.5 3.5-1.57 3.5-3.5-1.57-3.5-3.5-3.5"></path><path fill="#404040" d="M17.532 37.21a.75.75 0 0 1-.695-.468 2.24 2.24 0 0 0-2.087-1.405c-.921 0-1.74.551-2.087 1.405a.751.751 0 0 1-1.39-.565 3.74 3.74 0 0 1 3.477-2.34c1.534 0 2.899.918 3.477 2.34a.75.75 0 0 1-.695 1.033"></path><path fill="#404040" d="M14.75 35.336a2.21 2.21 0 0 1-2.207-2.207 2.21 2.21 0 0 1 2.207-2.207 2.21 2.21 0 0 1 2.207 2.207 2.21 2.21 0 0 1-2.207 2.207m0-2.914a.708.708 0 1 0 .002 1.416.708.708 0 0 0-.002-1.416m15.44-6.627q-.269.24-.5.525c-.12.15-.24.305-.345.47l-.18.09-10.28 5.14a.743.743 0 0 1-1.005-.335.75.75 0 0 1 .335-1.005l10.28-5.14.62-.31q.03-.016.06-.025a.746.746 0 0 1 .945.355v.005c.04.075.06.15.07.23m-3.551-4.35a.74.74 0 0 1-.335-.08l-8.09-4.044a.75.75 0 0 1 .672-1.342l8.089 4.044a.75.75 0 0 1-.337 1.422M17.46 23a.75.75 0 0 1-.706-.498l-1.25-3.51a.75.75 0 1 1 1.413-.504l1.25 3.51A.75.75 0 0 1 17.46 23m13.04-1a.75.75 0 0 1-.719-.965l2.338-5.805a.75.75 0 0 1 1.437.43l-2.338 5.805A.75.75 0 0 1 30.5 22m-5.22 11.88h-6.285a.75.75 0 1 1 0-1.5h6.285a.75.75 0 1 1 0 1.5m9.99.685a.75.75 0 0 1-.734-.6l-1.122-5.08a.75.75 0 1 1 1.47-.3l1.122 5.08a.75.75 0 0 1-.736.9M19 15.426a.751.751 0 0 1-.16-1.483l5.045-1.105a.75.75 0 0 1 .32 1.465l-5.044 1.105a1 1 0 0 1-.162.018"></path>
  </symbol>
  <symbol id="feature-homework" viewBox="0 0 48 48">
    <path fill="#404040" d="M10.781 37c-.431 0-.781-.364-.781-.812V13.091C10 10.836 11.767 9 13.938 9h18.718C33.95 9 35 10.092 35 11.435v20.289c0 1.342-1.051 2.435-2.344 2.435H12.781c-.431 0-.781-.364-.781-.812s.35-.812.781-.812h19.875c.431 0 .782-.364.782-.811V11.435c0-.447-.35-.812-.782-.812H13.938c-1.31 0-2.376 1.108-2.376 2.469v23.096c0 .448-.35.812-.78.812"></path><path fill="#404040" d="M32.656 39.5H13.518C11.578 39.5 10 37.93 10 36s1.06-3.5 3-3.5a.78.78 0 0 1 .781.777c0 .429-.35.723-.781.723-1.078 0-1.437.927-1.437 2s.877 1.946 1.955 1.946h19.138a.78.78 0 0 0 .782-.777v-1.171c0-.43.63-.498 1.062-.498.431 0 .5.069.5.498v1.17a2.34 2.34 0 0 1-2.344 2.332"></path><path fill="#404040" d="M36.555 37h-21.74a.82.82 0 0 1-.815-.82c0-.454.365-.822.815-.822h21.74c.45 0 .815-.368.815-.82V15.462a.82.82 0 0 0-.815-.82h-1.63a.82.82 0 0 1-.815-.821c0-.453.365-.821.815-.821h1.63A2.456 2.456 0 0 1 39 15.462v19.076A2.456 2.456 0 0 1 36.555 37M13.74 15a.74.74 0 0 1-.74-.74v-1.52a.74.74 0 0 1 .74-.74h1.52a.74.74 0 0 1 0 1.48h-.78v.78a.74.74 0 0 1-.74.74m17.52 0a.74.74 0 0 1-.74-.74v-.78h-.78a.74.74 0 0 1 0-1.48h1.52a.74.74 0 0 1 .74.74v1.52a.74.74 0 0 1-.74.74"></path>
  </symbol>
  <symbol id="feature-launch" viewBox="0 0 48 48">
    <path d="M20.9297 27.1666L35.7399 11.0439" stroke="#404040" stroke-width="1.5" stroke-linecap="round" stroke-linejoin="round"></path><path d="M31.625 16.6626L34.6306 17.5691L39.9518 12.0229L35.953 11.1416" stroke="#404040" stroke-width="1.5" stroke-linecap="round" stroke-linejoin="round"></path><path d="M30.6555 16.1099L29.5986 12.8049L34.9199 7.25879L35.9897 11.0543" stroke="#404040" stroke-width="1.5" stroke-linecap="round" stroke-linejoin="round"></path><path d="M27.8208 19.3856C25.9751 17.5535 23.5016 16.4739 20.89 16.3605C18.2784 16.2471 15.7189 17.1082 13.7181 18.7733C11.7174 20.4384 10.4212 22.7861 10.0861 25.3519C9.751 27.9177 10.4014 30.5144 11.9087 32.6282C13.4159 34.742 15.67 36.2188 18.225 36.7663C20.7799 37.3138 23.4495 36.892 25.7052 35.5846C27.9609 34.2771 29.6385 32.1792 30.4058 29.706C31.1732 27.2329 30.9744 24.5648 29.8488 22.2298" stroke="#404040" stroke-width="1.5" stroke-linecap="round" stroke-linejoin="round"></path><path d="M24.2922 22.8453C23.3878 21.9527 22.196 21.4018 20.9238 21.2884C19.6517 21.175 18.3796 21.5062 17.3285 22.2244C16.2774 22.9426 15.5138 24.0025 15.1702 25.22C14.8266 26.4375 14.9248 27.7356 15.4477 28.8889C15.9706 30.0422 16.8852 30.9778 18.0326 31.5331C19.18 32.0885 20.4878 32.2285 21.7287 31.9289C22.9696 31.6294 24.0652 30.9091 24.8253 29.8932C25.5854 28.8773 25.9619 27.63 25.8894 26.368" stroke="#404040" stroke-width="1.5" stroke-linecap="round" stroke-linejoin="round"></path>
  </symbol>
  <symbol id="feature-live-session" viewBox="0 0 48 48">
    <path fill="#404040" d="M22.5 40.493a.87.87 0 0 1-.658-.3l-3.518-4.096H9.25c-1.24 0-2.25-1.02-2.25-2.272V18.273C7 17.02 8.01 16 9.25 16H10a.864.864 0 1 1 0 1.73h-.75a.53.53 0 0 0-.52.543v15.552c0 .3.231.542.52.542h9.472c.253 0 .49.11.657.3L22.5 38.3l3.132-3.634c.162-.19.404-.3.658-.3h9.466c.288 0 .513-.237.513-.542v-9.772a.864.864 0 1 1 1.731 0v9.772c0 1.252-1.01 2.272-2.244 2.272h-9.068l-3.53 4.096a.87.87 0 0 1-.658.3"/><path fill="#404040" d="M14.5 29a2.501 2.501 0 0 1 0-5 2.501 2.501 0 0 1 0 5m0-3.553a1.06 1.06 0 0 0-1.058 1.058 1.06 1.06 0 0 0 1.058 1.058 1.06 1.06 0 0 0 1.058-1.058 1.06 1.06 0 0 0-1.058-1.058m8 3.553a2.501 2.501 0 0 1 0-5 2.501 2.501 0 0 1 0 5m0-3.553a1.06 1.06 0 0 0-1.058 1.058 1.06 1.06 0 0 0 1.058 1.058 1.06 1.06 0 0 0 1.058-1.058 1.06 1.06 0 0 0-1.058-1.058m8 3.553a2.501 2.501 0 0 1 0-5 2.501 2.501 0 0 1 0 5m0-3.553a1.06 1.06 0 0 0-1.058 1.058 1.06 1.06 0 0 0 1.058 1.058 1.06 1.06 0 0 0 1.058-1.058 1.06 1.06 0 0 0-1.058-1.058"/><path fill="#404040" d="M38.5 20a8.5 8.5 0 1 1 0-17 8.5 8.5 0 0 1 0 17m0-15.27a6.77 6.77 0 1 0 0 13.54 6.77 6.77 0 0 0 0-13.54"/><path fill="#404040" d="M36.65 14.62a.87.87 0 0 1-.614-1.484l1.236-1.236V8.076a.865.865 0 0 1 1.73 0v4.11c0 .23-.092.45-.254.613l-1.484 1.484a.86.86 0 0 1-.614.337"/>
  </symbol>
  <symbol id="feature-qa" viewBox="0 0 48 48">
    <path fill="#404040" d="M37.935 19.068h-27.2a.82.82 0 0 1-.82-.82v-3.78a2.464 2.464 0 0 1 2.46-2.462h23.92a2.464 2.464 0 0 1 2.46 2.461v3.78a.82.82 0 0 1-.82.821m-26.38-1.64h25.56v-2.96a.82.82 0 0 0-.82-.821h-23.92a.82.82 0 0 0-.82.82z"></path><path fill="#404040" d="M37.936 24.418a.82.82 0 0 1-.82-.82v-5.35a.82.82 0 0 1 1.64 0v5.35a.82.82 0 0 1-.82.82m-14.35 13.124H12.375a2.464 2.464 0 0 1-2.46-2.46V18.248a.82.82 0 0 1 1.64 0V35.08c0 .453.368.82.82.82h11.21a.82.82 0 0 1 0 1.641"></path><path fill="#404040" d="M33.703 23.313H14.836a.82.82 0 1 1 0-1.641h18.867a.82.82 0 1 1 0 1.64m-8.476 4.376H14.836a.82.82 0 1 1 0-1.641h10.39a.82.82 0 1 1 0 1.64m-3.216 4.376h-7.174a.82.82 0 1 1 0-1.641h7.175a.82.82 0 1 1 0 1.64M14.117 15.74a.82.82 0 0 1-.82-.82v-4.186a.82.82 0 0 1 1.64 0v4.185a.82.82 0 0 1-.82.82m5.109.001a.82.82 0 0 1-.82-.82v-4.186a.82.82 0 0 1 1.64 0v4.185a.82.82 0 0 1-.82.82m5.109.001a.82.82 0 0 1-.82-.82v-4.186a.82.82 0 0 1 1.64 0v4.185a.82.82 0 0 1-.82.82m5.11.001a.82.82 0 0 1-.82-.82v-4.186a.82.82 0 0 1 1.64 0v4.185a.82.82 0 0 1-.82.82"></path>
  </symbol>
  <symbol id="feature-reader" viewBox="0 0 48 48">
    <path fill="#404040" d="M37.044 20.398H14.886c-2.418 0-4.386-2.22-4.386-4.95 0-2.727 1.968-4.948 4.386-4.948h22.158c.467 0 .844.426.844.952s-.377.952-.844.952H14.886c-1.488 0-2.698 1.366-2.698 3.045 0 1.68 1.21 3.045 2.698 3.045h22.158c.467 0 .844.426.844.952s-.377.952-.844.952"></path><path fill="#404040" d="M35.74 20.398c-.467 0-.845-.426-.845-.952v-7.994c0-.526.378-.952.844-.952.467 0 .844.426.844.952v7.994c0 .526-.377.952-.844.952"></path><path fill="#404040" d="M35.433 16.06H17.275c-.635 0-1.15-.425-1.15-.951s.515-.952 1.15-.952h18.158c.636 0 1.15.426 1.15.952s-.514.952-1.15.952m-1.956 11.995H9.657a1.97 1.97 0 0 1-1.97-1.969v-5.18a1.97 1.97 0 0 1 1.97-1.97h23.82a1.97 1.97 0 0 1 1.969 1.97v5.18a1.97 1.97 0 0 1-1.969 1.97m-23.82-7.432a.28.28 0 0 0-.282.282v5.18c0 .156.126.282.281.282h23.821a.28.28 0 0 0 .281-.281v-5.181a.28.28 0 0 0-.281-.282z"></path><path fill="#404040" d="M13.031 28.056a.843.843 0 0 1-.844-.844v-7.43a.843.843 0 1 1 1.688 0v7.43a.843.843 0 0 1-.844.844m2.977 0a.843.843 0 0 1-.844-.844v-7.43a.843.843 0 1 1 1.688 0v7.43a.843.843 0 0 1-.844.844m14.038 0a.843.843 0 0 1-.844-.844v-7.43a.843.843 0 1 1 1.688 0v7.43a.843.843 0 0 1-.844.844m-2.952 0a.843.843 0 0 1-.844-.844v-7.43a.843.843 0 1 1 1.688 0v7.43a.843.843 0 0 1-.844.844"></path><path fill="#404040" d="M15.45 35.688h-.663c-2.42 0-3.725-2.069-3.725-4.488 0-1.172.458-2.275 1.289-3.106a4.35 4.35 0 0 1 3.1-1.282h23.295a.843.843 0 1 1 0 1.688H15.45a2.68 2.68 0 0 0-1.907.788 2.7 2.7 0 0 0-.794 1.912c0 1.488.794 2.8 2.037 2.8h.664a.843.843 0 1 1 0 1.688m23.296-.101H25.649a.843.843 0 1 1 0-1.687h13.097a.843.843 0 1 1 0 1.687"></path><path fill="#404040" d="M37.44 35.588a.843.843 0 0 1-.843-.844v-7.085a.843.843 0 1 1 1.688 0v7.085a.843.843 0 0 1-.844.844"></path><path fill="#404040" d="M37.03 32.163H25.255c-.383 0-.692-.378-.692-.844s.31-.844.692-.844H37.03c.383 0 .692.377.692.844s-.31.844-.692.844"></path>
  </symbol>
  <symbol id="feature-recording" viewBox="0 0 48 48">
    <path fill="#404040" stroke="#FAFAFA" stroke-width=".2" d="M39.188 38.344H8.811a.843.843 0 0 1-.843-.844v-27c0-.467.377-.844.843-.844h30.376c.466 0 .843.377.843.844v27a.843.843 0 0 1-.843.844ZM9.656 36.656h28.688V11.344H9.656z"/><path fill="#404040" stroke="#FAFAFA" stroke-linejoin="round" stroke-width=".2" d="M11.253 30.228a.75.75 0 0 1 .656-.041l.089.043 3.463 2.024a.74.74 0 0 1 .367.645c0 .235-.107.45-.286.59l-.081.055-3.465 2.025a.7.7 0 0 1-.348.096l-.023-.003a.8.8 0 0 1-.284-.057l-.089-.043a.74.74 0 0 1-.371-.643v-4.045c0-.268.144-.51.373-.645zm1.216 2.014a.1.1 0 0 0-.1.1v1.108a.1.1 0 0 0 .15.087l.945-.552a.1.1 0 0 0 0-.173l-.924-.54a.1.1 0 0 0-.071-.03Z"/><path fill="#404040" stroke="#FAFAFA" stroke-width=".2" d="M18.122 35.486a.843.843 0 0 1-.844-.843v-3.494a.843.843 0 1 1 1.688 0v3.493a.843.843 0 0 1-.844.844Zm2.25 0a.843.843 0 0 1-.844-.843v-3.494a.843.843 0 1 1 1.688 0v3.493a.843.843 0 0 1-.844.844Z"/><path fill="#404040" d="m17.78 23.613 9.378-5.438a.45.45 0 0 1 .672.39v10.87a.45.45 0 0 1-.672.39l-9.378-5.432a.45.45 0 0 1 0-.78Z"/>
  </symbol>
  <symbol id="feature-tools" viewBox="0 0 48 48">
    <path fill="#404040" d="M39.188 38.89h-5.063a.844.844 0 0 1 0-1.688h4.219v-1.17a3.99 3.99 0 0 0-3.983-3.994 4.02 4.02 0 0 0-3.214 1.622.843.843 0 1 1-1.356-1.004 5.71 5.71 0 0 1 4.57-2.305c3.127 0 5.67 2.548 5.67 5.68v2.014a.844.844 0 0 1-.843.844"></path><path fill="#404040" d="M34.357 32.043c-2.14 0-3.88-1.74-3.88-3.88 0-2.141 1.74-3.882 3.88-3.882s3.881 1.741 3.881 3.881-1.74 3.881-3.88 3.881m0-6.074c-1.21 0-2.193.984-2.193 2.193s.984 2.194 2.193 2.194 2.194-.984 2.194-2.194-.984-2.193-2.194-2.193M13.875 38.89H8.813a.844.844 0 0 1-.844-.845v-2.013c0-3.133 2.543-5.681 5.67-5.681 1.793 0 3.502.861 4.57 2.305a.843.843 0 1 1-1.356 1.004 4.02 4.02 0 0 0-3.214-1.622 3.99 3.99 0 0 0-3.983 3.994v1.17h4.219a.844.844 0 0 1 0 1.687"></path><path fill="#404040" d="M13.643 32.043a3.885 3.885 0 0 1-3.881-3.88 3.885 3.885 0 0 1 3.88-3.882c2.14 0 3.882 1.741 3.882 3.881s-1.742 3.881-3.881 3.881m0-6.074c-1.21 0-2.194.984-2.194 2.193s.984 2.194 2.194 2.194 2.193-.984 2.193-2.194-.984-2.193-2.193-2.193m13.333-8.154a.8.8 0 0 1-.334-.07L24 16.606l-2.642 1.14a.843.843 0 0 1-1.174-.854l.267-2.864-1.9-2.16a.844.844 0 0 1 .449-1.38l2.807-.631 1.467-2.475a.844.844 0 0 1 1.451 0l1.468 2.475 2.807.63a.845.845 0 0 1 .448 1.38l-1.9 2.161.267 2.864a.843.843 0 0 1-.84.922m-6.218-5.993 1.2 1.365a.85.85 0 0 1 .207.636l-.169 1.81 1.67-.72a.84.84 0 0 1 .668 0l1.67.72-.17-1.81a.84.84 0 0 1 .207-.636l1.2-1.365-1.773-.399a.85.85 0 0 1-.54-.393L24 9.467l-.928 1.563a.85.85 0 0 1-.54.393zm-8.569 9.209a.844.844 0 0 1-.378-1.598l5.625-2.812a.844.844 0 0 1 .755 1.51l-5.625 2.812a.84.84 0 0 1-.377.089m3.749-9.562a.8.8 0 0 1-.307-.059l-4.312-1.687a.844.844 0 0 1 .614-1.571l4.313 1.687a.844.844 0 0 1-.308 1.63m-7.125 3.937a.844.844 0 0 1-.056-1.686l8.438-.562a.844.844 0 0 1 .112 1.684l-8.437.563zm27 5.624a.84.84 0 0 1-.377-.088L29.81 18.13a.844.844 0 1 1 .755-1.51l5.625 2.812a.844.844 0 0 1-.378 1.599m-3.75-9.562a.843.843 0 0 1-.307-1.63l4.312-1.687a.845.845 0 0 1 .616 1.57L32.37 11.41a.8.8 0 0 1-.308.059m7.127 3.937-.058-.002-8.437-.562a.844.844 0 0 1-.786-.898.85.85 0 0 1 .898-.786l8.437.562a.844.844 0 0 1-.054 1.686"></path>
  </symbol>
  <symbol id="filter" viewBox="0 0 16 16">
    <path d="M2 3H14L9.5 8.5V12.5L6.5 14V8.5L2 3Z" stroke="currentColor" stroke-width="1.2" stroke-linejoin="round"/>
  </symbol>
  <symbol id="globe" viewBox="0 0 16 16">
    <circle cx="8" cy="8" r="6.5" stroke="currentColor" stroke-width="1.2"/><ellipse cx="8" cy="8" rx="3" ry="6.5" stroke="currentColor" stroke-width="1.2"/><path d="M2 8H14" stroke="currentColor" stroke-width="1.2"/>
  </symbol>
  <symbol id="heart" viewBox="0 0 16 16">
    <path d="M8 13.5L2.5 8.5C1.16667 7.16667 1.16667 4.83333 2.5 3.5C3.83333 2.16667 6.16667 2.16667 7.5 3.5L8 4L8.5 3.5C9.83333 2.16667 12.1667 2.16667 13.5 3.5C14.8333 4.83333 14.8333 7.16667 13.5 8.5L8 13.5Z" stroke="currentColor" stroke-width="1.2" stroke-linejoin="round"/>
  </symbol>
  <symbol id="info" viewBox="0 0 16 16">
    <circle cx="8" cy="8" r="6.5" stroke="currentColor" stroke-width="1.2"/><path d="M8 7V11" stroke="currentColor" stroke-width="1.2" stroke-linecap="round"/><circle cx="8" cy="5" r="0.75" fill="currentColor"/>
  </symbol>
  <symbol id="lightning-bookmark" viewBox="0 0 16 18">
    <mask id="path-1-outside-1" maskUnits="userSpaceOnUse" x="3" y="9" width="10" height="9" fill="black"><rect fill="white" x="3" y="9" width="10" height="9"/><path d="M11 11V16L8 14.5L5 16V11"/></mask><path d="M11 11V16L8 14.5L5 16V11" fill="currentColor"/><circle cx="8" cy="6" r="4.4" stroke="currentColor" stroke-width="1.2"/><path d="M8.5 4L7 6.5H9L7.5 9" stroke="currentColor" stroke-width="0.8" stroke-linecap="round" stroke-linejoin="round"/>
  </symbol>
  <symbol id="linkedin" viewBox="0 0 16 16">
    <path d="M2.95322 4.57279C3.84777 4.57279 4.57294 3.84762 4.57294 2.95307C4.57294 2.05852 3.84777 1.33334 2.95322 1.33334C2.05867 1.33334 1.3335 2.05852 1.3335 2.95307C1.3335 3.84762 2.05867 4.57279 2.95322 4.57279Z"/><path d="M6.05633 5.76981H8.74074V6.99955C8.74074 6.99955 9.46919 5.54265 11.4512 5.54265C13.2192 5.54265 14.6839 6.41363 14.6839 9.06843V14.6667H11.9021V9.74679C11.9021 8.18071 11.066 8.00846 10.4288 8.00846C9.10661 8.00846 8.88025 9.14896 8.88025 9.95107V14.6667H6.05633V5.76981Z"/><path d="M1.54127 5.76982H4.36518V14.6667H1.54127V5.76982Z"/>
  </symbol>
  <symbol id="mail" viewBox="0 0 16 16">
    <path d="M2 4L8 8.5L14 4" stroke="currentColor" stroke-width="1.2" stroke-linecap="round" stroke-linejoin="round"/><rect x="1.5" y="3" width="13" height="10" rx="1.5" stroke="currentColor" stroke-width="1.2"/>
  </symbol>
  <symbol id="maven-logo" viewBox="0 0 138 32">
    <path fill="currentColor" d="M11.732.854c.313 0 .566.253.566.565v.568H1.134v.854h11.164v23.765a.565.565 0 0 1-.566.565h-.553v.855h8.91v-.855h-.553a.565.565 0 0 1-.566-.565V2.841h11.178v-.854H18.97v-.568c0-.312.254-.565.566-.565h11.747V0H0v.854zm5.205 0c.313 0 .566.253.566.565v25.187a.565.565 0 0 1-.566.565h-.002a.565.565 0 0 1-.566-.565V1.42c0-.312.253-.565.566-.565zm-2.602 0c.312 0 .566.253.566.565v25.187a.565.565 0 0 1-.566.565h-.003a.565.565 0 0 1-.565-.565V1.42c0-.312.253-.565.566-.565z"></path><path fill="currentColor" d="M29.015 31.146h-.553a.565.565 0 0 1-.566-.565v-.567h2.253v-.855h-2.253V5.394c0-.312.253-.565.566-.565h.553v-.854h-8.91v.854h.553c.313 0 .566.253.566.565v23.765H10.06V5.394c0-.312.253-.565.566-.565h.553v-.854H2.27v.854h.553c.312 0 .566.253.566.565v23.765H1.134v.855h2.253v.567a.565.565 0 0 1-.565.565H0V32h31.321v-.854zm-23.593 0a.565.565 0 0 1-.566-.565V5.394c0-.312.253-.565.566-.565h.002c.313 0 .566.253.566.565v25.187a.565.565 0 0 1-.566.565zm2.602 0a.565.565 0 0 1-.566-.565V5.394c0-.312.254-.565.566-.565h.003c.312 0 .565.253.565.565v25.187a.565.565 0 0 1-.565.565zm12.08 0h-9.477a.565.565 0 0 1-.566-.565v-.567h11.163v.567a.565.565 0 0 1-.566.565zm3.153 0a.565.565 0 0 1-.566-.565V5.394c0-.312.253-.565.566-.565h.002c.313 0 .566.253.566.565v25.187a.565.565 0 0 1-.566.565zm2.602 0a.565.565 0 0 1-.566-.565V5.394c0-.312.254-.565.566-.565h.003c.312 0 .566.253.566.565v25.187a.565.565 0 0 1-.566.565zM99.181 9.93q-.24 1.214-.72 2.664-.446 1.418-1.44 3.81l-3.393 7.957-3.257-7.958q-.96-2.393-1.44-3.809a18 18 0 0 1-.686-2.664H83.65a24 24 0 0 1 1.611 2.732q.79 1.483 1.851 4.01l4.936 11.801h3.085l4.937-11.8q1.096-2.529 1.851-4.011.755-1.485 1.611-2.732zM118.797 14.28q-.892-2.224-2.64-3.505-1.747-1.315-4.319-1.315-1.92 0-3.634.742a9.4 9.4 0 0 0-2.983 2.091 9.7 9.7 0 0 0-2.057 3.102q-.72 1.787-.72 3.843t.72 3.843a9.8 9.8 0 0 0 2.057 3.068 10.1 10.1 0 0 0 3.017 2.057 9.05 9.05 0 0 0 3.633.742q2.23 0 3.668-.709 1.474-.741 2.297-1.686.858-.977 1.235-1.72l-1.235-1.045q-.755 1.113-2.022 1.786-1.234.675-3.154.674-1.92 0-3.497-.944a7.1 7.1 0 0 1-2.468-2.529 7.23 7.23 0 0 1-.891-3.54h13.918q0-2.764-.926-4.955zm-12.719 2.428q.481-2.09 1.852-3.303 1.37-1.248 3.564-1.248 2.024 0 3.155 1.248 1.131 1.214 1.508 3.303zM77.085 9.495v-.002q-3.77 0-6.548 1.956l.103 3.506h.24a8.3 8.3 0 0 1 2.605-1.989 6.74 6.74 0 0 1 3.12-.775q1.816 0 2.742 1.147.926 1.112 1.132 3.607-3.464-.439-6 .17-2.535.606-3.942 2.158-1.37 1.516-1.371 3.877 0 1.651.823 2.967a6 6 0 0 0 2.229 2.09q1.407.742 3.154.741c1.166 0 2.148-.258 3.017-.774q1.302-.81 1.953-2.294h.138v2.832h3.29V18.26q-.034-4.62-1.61-6.676-1.578-2.09-5.074-2.09zm3.428 12.842a3.93 3.93 0 0 1-.686 1.99 4.6 4.6 0 0 1-1.61 1.415q-.96.506-2.16.506-1.68 0-2.605-.809-.926-.81-.926-2.293 0-2.36 2.16-3.405 2.194-1.079 5.827-.675zM137.152 15.122v.002a8.8 8.8 0 0 0-.924-2.866q-.652-1.281-1.954-2.023-1.269-.775-3.325-.775-1.68.001-2.674.404-.994.405-1.612 1.079a10 10 0 0 0-1.097 1.483h-.24V9.695l-4.559.944v.203q.479.741.754 1.55.274.81.411 1.989.137 1.148.137 2.967v3.641q0 1.063-.033 2.125h.001v5.358h3.293V21.99q-.005-.5-.005-1v-2.462q.103-1.582.514-3.034.445-1.45 1.509-2.393 1.097-.944 3.119-.944 1.304 0 2.057.573.754.572 1.097 1.484.344.91.446 2.022.103 1.079.104 2.158v2.596q0 .47-.007.94v6.545h3.263v-10.08q0-1.686-.275-3.271zM54.548 24.368l-8.81-20.296h-4.627a18.5 18.5 0 0 1 .515 3.708q.102 1.887.102 3.777v17.167h3.257V10.58l7.894 18.144h2.93l7.894-18.144v18.144h3.429V11.557q0-1.888.068-3.777.103-1.888.548-3.708h-4.286z"></path>
  </symbol>
  <symbol id="menu-hamburger" viewBox="0 0 16 16">
    <path fill-rule="evenodd" clip-rule="evenodd" d="M2 4C2 3.66863 2.35039 3.4 2.78261 3.4H13.2174C13.6496 3.4 14 3.66863 14 4C14 4.33137 13.6496 4.6 13.2174 4.6H2.78261C2.35039 4.6 2 4.33137 2 4ZM2 8C2 7.66863 2.35039 7.4 2.78261 7.4H13.2174C13.6496 7.4 14 7.66863 14 8C14 8.33137 13.6496 8.6 13.2174 8.6H2.78261C2.35039 8.6 2 8.33137 2 8ZM2.78261 11.4C2.35039 11.4 2 11.6686 2 12C2 12.3314 2.35039 12.6 2.78261 12.6H13.2174C13.6496 12.6 14 12.3314 14 12C14 11.6686 13.6496 11.4 13.2174 11.4H2.78261Z" fill="currentColor"/>
  </symbol>
  <symbol id="minus" viewBox="0 0 16 16">
    <path d="M3 8H13" stroke="currentColor" stroke-width="1.2" stroke-linecap="round"/>
  </symbol>
  <symbol id="play" viewBox="0 0 16 16">
    <path d="M4 3L13 8L4 13V3Z" fill="currentColor"/>
  </symbol>
  <symbol id="plus" viewBox="0 0 16 16">
    <path d="M8 3V13M3 8H13" stroke="currentColor" stroke-width="1.2" stroke-linecap="round"/>
  </symbol>
  <symbol id="search" viewBox="0 0 16 16">
    <path fill-rule="evenodd" clip-rule="evenodd" d="M2.5999 7.25C2.5999 4.68188 4.68177 2.6 7.2499 2.6C9.81802 2.6 11.8999 4.68188 11.8999 7.25C11.8999 8.53251 11.3807 9.69376 10.541 10.535C10.5399 10.5361 10.5388 10.5372 10.5377 10.5383C10.5366 10.5393 10.5356 10.5404 10.5345 10.5415C9.69328 11.381 8.5322 11.9 7.2499 11.9C4.68177 11.9 2.5999 9.81812 2.5999 7.25ZM10.9403 11.7894C9.93358 12.6088 8.64911 13.1 7.2499 13.1C4.01903 13.1 1.3999 10.4809 1.3999 7.25C1.3999 4.01914 4.01903 1.4 7.2499 1.4C10.4808 1.4 13.0999 4.01914 13.0999 7.25C13.0999 8.64944 12.6085 9.93412 11.7888 10.9409L14.4238 13.5758C14.6581 13.8101 14.6581 14.19 14.4238 14.4243C14.1895 14.6586 13.8096 14.6586 13.5752 14.4243L10.9403 11.7894Z" fill="currentColor"/>
  </symbol>
  <symbol id="settings" viewBox="0 0 16 16">
    <circle cx="8" cy="8" r="2.5" stroke="currentColor" stroke-width="1.2"/><path d="M8 1.5V3M8 13V14.5M1.5 8H3M13 8H14.5M3.05 3.05L4.11 4.11M11.89 11.89L12.95 12.95M3.05 12.95L4.11 11.89M11.89 4.11L12.95 3.05" stroke="currentColor" stroke-width="1.2" stroke-linecap="round"/>
  </symbol>
  <symbol id="share" viewBox="0 0 16 16">
    <path d="M6 9L10 5M10 5H6.5M10 5V8.5" stroke="currentColor" stroke-width="1.2" stroke-linecap="round" stroke-linejoin="round"/><path d="M14 8V13C14 13.5523 13.5523 14 13 14H3C2.44772 14 2 13.5523 2 13V3C2 2.44772 2.44772 2 3 2H8" stroke="currentColor" stroke-width="1.2" stroke-linecap="round"/>
  </symbol>
  <symbol id="star-half" viewBox="0 0 16 16">
    <path fill-rule="evenodd" d="M8.91829 1.86666C8.57099 1.06131 7.42908 1.06132 7.08178 1.86666L5.85209 4.71815C5.77815 4.88959 5.61486 5.00556 5.42863 5.01888L2.23113 5.24756C1.32543 5.31233 0.967893 6.45333 1.67466 7.02338L4.06359 8.95021C4.21604 9.07317 4.28266 9.27382 4.23403 9.46354L3.48772 12.3753C3.26693 13.2367 4.1961 13.9362 4.96288 13.4858L7.7468 11.8506C7.90314 11.7588 8.09693 11.7588 8.25327 11.8506L11.0372 13.4858C11.804 13.9362 12.7331 13.2367 12.5123 12.3753L11.766 9.46354C11.7174 9.27382 11.784 9.07317 11.9365 8.95021L14.3254 7.02338C15.0322 6.45333 14.6746 5.31233 13.7689 5.24756L10.5714 5.01888C10.3852 5.00556 10.2219 4.88959 10.148 4.71815L8.91829 1.86666Z" fill="currentColor" fill-opacity="0.3"/><path d="M8 2V12L4.96288 13.4858C4.1961 13.9362 3.26693 13.2367 3.48772 12.3753L4.23403 9.46354C4.28266 9.27382 4.21604 9.07317 4.06359 8.95021L1.67466 7.02338C0.967893 6.45333 1.32543 5.31233 2.23113 5.24756L5.42863 5.01888C5.61486 5.00556 5.77815 4.88959 5.85209 4.71815L7.08178 1.86666C7.42908 1.06132 8 1.4 8 2Z" fill="currentColor"/>
  </symbol>
  <symbol id="star" viewBox="0 0 16 16">
    <path fill-rule="evenodd" d="M8.91829 1.86666C8.57099 1.06131 7.42908 1.06132 7.08178 1.86666L5.85209 4.71815C5.77815 4.88959 5.61486 5.00556 5.42863 5.01888L2.23113 5.24756C1.32543 5.31233 0.967893 6.45333 1.67466 7.02338L4.06359 8.95021C4.21604 9.07317 4.28266 9.27382 4.23403 9.46354L3.48772 12.3753C3.26693 13.2367 4.1961 13.9362 4.96288 13.4858L7.7468 11.8506C7.90314 11.7588 8.09693 11.7588 8.25327 11.8506L11.0372 13.4858C11.804 13.9362 12.7331 13.2367 12.5123 12.3753L11.766 9.46354C11.7174 9.27382 11.784 9.07317 11.9365 8.95021L14.3254 7.02338C15.0322 6.45333 14.6746 5.31233 13.7689 5.24756L10.5714 5.01888C10.3852 5.00556 10.2219 4.88959 10.148 4.71815L8.91829 1.86666Z" fill="currentColor"/>
  </symbol>
  <symbol id="twitter-x" viewBox="0 0 16 16">
    <path d="M11.7093 2.25L13.745 2.25L9.2976 7.33308L14.5296 14.25H10.433L7.22408 9.99808L3.57297 14.25H1.53566L6.27566 8.83363L1.27148 2.25H5.47148L8.39029 6.16488L11.7093 2.25Z"/>
  </symbol>
  <symbol id="user" viewBox="0 0 20 20">
    <path d="M10 10C12.2091 10 14 8.20914 14 6C14 3.79086 12.2091 2 10 2C7.79086 2 6 3.79086 6 6C6 8.20914 7.79086 10 10 10Z" stroke="currentColor" stroke-width="1.2" stroke-linecap="round" stroke-linejoin="round"/><path d="M2.5 17.5C2.5 14.4624 5.85786 12 10 12C14.1421 12 17.5 14.4624 17.5 17.5" stroke="currentColor" stroke-width="1.2" stroke-linecap="round" stroke-linejoin="round"/>
  </symbol>
  <symbol id="users" viewBox="0 0 24 24">
    <path d="M17 20C17 17.2386 14.7614 15 12 15C9.23858 15 7 17.2386 7 20" stroke="currentColor" stroke-width="1.5" stroke-linecap="round"/><circle cx="12" cy="9" r="3.5" stroke="currentColor" stroke-width="1.5"/><path d="M20 18C20 16.067 18.433 14.5 16.5 14.5" stroke="currentColor" stroke-width="1.5" stroke-linecap="round"/><circle cx="17" cy="9.5" r="2.5" stroke="currentColor" stroke-width="1.5"/>
  </symbol>
  <symbol id="video" viewBox="0 0 16 16">
    <rect x="1.5" y="3.5" width="9" height="9" rx="1" stroke="currentColor" stroke-width="1.2"/><path d="M10.5 6.5L14.5 4V12L10.5 9.5" stroke="currentColor" stroke-width="1.2" stroke-linejoin="round"/>
  </symbol>
</svg>