<?xml version="1.0" encoding="UTF-8"?>
<svg xmlns="http://www.w3.org/2000/svg" fill="none" viewBox="0 0 138 32"><path fill="currentColor" d="M11.732.854c.313 0 .566.253.566.565v.568H1.134v.854h11.164v23.765a.565.565 0 0 1-.566.565h-.553v.855h8.91v-.855h-.553a.565.565 0 0 1-.566-.565V2.841h11.178v-.854H18.97v-.568c0-.312.254-.565.566-.565h11.747V0H0v.854zm5.205 0c.313 0 .566.253.566.565v25.187a.565.565 0 0 1-.566.565h-.002a.565.565 0 0 1-.566-.565V1.42c0-.312.253-.565.566-.565zm-2.602 0c.312 0 .566.253.566.565v25.187a.565.565 0 0 1-.566.565h-.003a.565.565 0 0 1-.565-.565V1.42c0-.312.253-.565.566-.565z"></path><path fill="currentColor" d="M29.015 31.146h-.553a.565.565 0 0 1-.566-.565v-.567h2.253v-.855h-2.253V5.394c0-.312.253-.565.566-.565h.553v-.854h-8.91v.854h.553c.313 0 .566.253.566.565v23.765H10.06V5.394c0-.312.253-.565.566-.565h.553v-.854H2.27v.854h.553c.312 0 .566.253.566.565v23.765H1.134v.855h2.253v.567a.565.565 0 0 1-.565.565H0V32h31.321v-.854zm-23.593 0a.565.565 0 0 1-.566-.565V5.394c0-.312.253-.565.566-.565h.002c.313 0 .566.253.566.565v25.187a.565.565 0 0 1-.566.565zm2.602 0a.565.565 0 0 1-.566-.565V5.394c0-.312.254-.565.566-.565h.003c.312 0 .565.253.565.565v25.187a.565.565 0 0 1-.565.565zm12.08 0h-9.477a.565.565 0 0 1-.566-.565v-.567h11.163v.567a.565.565 0 0 1-.566.565zm3.153 0a.565.565 0 0 1-.566-.565V5.394c0-.312.253-.565.566-.565h.002c.313 0 .566.253.566.565v25.187a.565.565 0 0 1-.566.565zm2.602 0a.565.565 0 0 1-.566-.565V5.394c0-.312.254-.565.566-.565h.003c.312 0 .566.253.566.565v25.187a.565.565 0 0 1-.566.565zM99.181 9.93q-.24 1.214-.72 2.664-.446 1.418-1.44 3.81l-3.393 7.957-3.257-7.958q-.96-2.393-1.44-3.809a18 18 0 0 1-.686-2.664H83.65a24 24 0 0 1 1.611 2.732q.79 1.483 1.851 4.01l4.936 11.801h3.085l4.937-11.8q1.096-2.529 1.851-4.011.755-1.485 1.611-2.732zM118.797 14.28q-.892-2.224-2.64-3.505-1.747-1.315-4.319-1.315-1.92 0-3.634.742a9.4 9.4 0 0 0-2.983 2.091 9.7 9.7 0 0 0-2.057 3.102q-.72 1.787-.72 3.843t.72 3.843a9.8 9.8 0 0 0 2.057 3.068 10.1 10.1 0 0 0 3.017 2.057 9.05 9.05 0 0 0 3.633.742q2.23 0 3.668-.709 1.474-.741 2.297-1.686.858-.977 1.235-1.72l-1.235-1.045q-.755 1.113-2.022 1.786-1.234.675-3.154.674-1.92 0-3.497-.944a7.1 7.1 0 0 1-2.468-2.529 7.23 7.23 0 0 1-.891-3.54h13.918q0-2.764-.926-4.955zm-12.719 2.428q.481-2.09 1.852-3.303 1.37-1.248 3.564-1.248 2.024 0 3.155 1.248 1.131 1.214 1.508 3.303zM77.085 9.495v-.002q-3.77 0-6.548 1.956l.103 3.506h.24a8.3 8.3 0 0 1 2.605-1.989 6.74 6.74 0 0 1 3.12-.775q1.816 0 2.742 1.147.926 1.112 1.132 3.607-3.464-.439-6 .17-2.535.606-3.942 2.158-1.37 1.516-1.371 3.877 0 1.651.823 2.967a6 6 0 0 0 2.229 2.09q1.407.742 3.154.741c1.166 0 2.148-.258 3.017-.774q1.302-.81 1.953-2.294h.138v2.832h3.29V18.26q-.034-4.62-1.61-6.676-1.578-2.09-5.074-2.09zm3.428 12.842a3.93 3.93 0 0 1-.686 1.99 4.6 4.6 0 0 1-1.61 1.415q-.96.506-2.16.506-1.68 0-2.605-.809-.926-.81-.926-2.293 0-2.36 2.16-3.405 2.194-1.079 5.827-.675zM137.152 15.122v.002a8.8 8.8 0 0 0-.924-2.866q-.652-1.281-1.954-2.023-1.269-.775-3.325-.775-1.68.001-2.674.404-.994.405-1.612 1.079a10 10 0 0 0-1.097 1.483h-.24V9.695l-4.559.944v.203q.479.741.754 1.55.274.81.411 1.989.137 1.148.137 2.967v3.641q0 1.063-.033 2.125h.001v5.358h3.293V21.99q-.005-.5-.005-1v-2.462q.103-1.582.514-3.034.445-1.45 1.509-2.393 1.097-.944 3.119-.944 1.304 0 2.057.573.754.572 1.097 1.484.344.91.446 2.022.103 1.079.104 2.158v2.596q0 .47-.007.94v6.545h3.263v-10.08q0-1.686-.275-3.271zM54.548 24.368l-8.81-20.296h-4.627a18.5 18.5 0 0 1 .515 3.708q.102 1.887.102 3.777v17.167h3.257V10.58l7.894 18.144h2.93l7.894-18.144v18.144h3.429V11.557q0-1.888.068-3.777.103-1.888.548-3.708h-4.286z"></path></svg>