<?xml version="1.0" encoding="UTF-8"?>
<svg width="24" height="24" viewBox="0 0 16 16" fill="none" xmlns="http://www.w3.org/2000/svg"><path fill-rule="evenodd" clip-rule="evenodd" d="M2 4C2 3.66863 2.35039 3.4 2.78261 3.4H13.2174C13.6496 3.4 14 3.66863 14 4C14 4.33137 13.6496 4.6 13.2174 4.6H2.78261C2.35039 4.6 2 4.33137 2 4ZM2 8C2 7.66863 2.35039 7.4 2.78261 7.4H13.2174C13.6496 7.4 14 7.66863 14 8C14 8.33137 13.6496 8.6 13.2174 8.6H2.78261C2.35039 8.6 2 8.33137 2 8ZM2.78261 11.4C2.35039 11.4 2 11.6686 2 12C2 12.3314 2.35039 12.6 2.78261 12.6H13.2174C13.6496 12.6 14 12.3314 14 12C14 11.6686 13.6496 11.4 13.2174 11.4H2.78261Z" fill="currentColor"/></svg>