<?xml version="1.0" encoding="UTF-8"?>
<svg width="16" height="16" viewBox="0 0 16 16" fill="none" xmlns="http://www.w3.org/2000/svg"><path fill-rule="evenodd" clip-rule="evenodd" d="M2.5999 7.25C2.5999 4.68188 4.68177 2.6 7.2499 2.6C9.81802 2.6 11.8999 4.68188 11.8999 7.25C11.8999 8.53251 11.3807 9.69376 10.541 10.535C10.5399 10.5361 10.5388 10.5372 10.5377 10.5383C10.5366 10.5393 10.5356 10.5404 10.5345 10.5415C9.69328 11.381 8.5322 11.9 7.2499 11.9C4.68177 11.9 2.5999 9.81812 2.5999 7.25ZM10.9403 11.7894C9.93358 12.6088 8.64911 13.1 7.2499 13.1C4.01903 13.1 1.3999 10.4809 1.3999 7.25C1.3999 4.01914 4.01903 1.4 7.2499 1.4C10.4808 1.4 13.0999 4.01914 13.0999 7.25C13.0999 8.64944 12.6085 9.93412 11.7888 10.9409L14.4238 13.5758C14.6581 13.8101 14.6581 14.19 14.4238 14.4243C14.1895 14.6586 13.8096 14.6586 13.5752 14.4243L10.9403 11.7894Z" fill="currentColor"/></svg>