<?xml version="1.0" encoding="UTF-8"?>
<svg width="16" height="16" viewBox="0 0 16 16" fill="none" xmlns="http://www.w3.org/2000/svg"><path fill-rule="evenodd" d="M8.91829 1.86666C8.57099 1.06131 7.42908 1.06132 7.08178 1.86666L5.85209 4.71815C5.77815 4.88959 5.61486 5.00556 5.42863 5.01888L2.23113 5.24756C1.32543 5.31233 0.967893 6.45333 1.67466 7.02338L4.06359 8.95021C4.21604 9.07317 4.28266 9.27382 4.23403 9.46354L3.48772 12.3753C3.26693 13.2367 4.1961 13.9362 4.96288 13.4858L7.7468 11.8506C7.90314 11.7588 8.09693 11.7588 8.25327 11.8506L11.0372 13.4858C11.804 13.9362 12.7331 13.2367 12.5123 12.3753L11.766 9.46354C11.7174 9.27382 11.784 9.07317 11.9365 8.95021L14.3254 7.02338C15.0322 6.45333 14.6746 5.31233 13.7689 5.24756L10.5714 5.01888C10.3852 5.00556 10.2219 4.88959 10.148 4.71815L8.91829 1.86666Z" fill="currentColor" fill-opacity="0.3"/><path d="M8 2V12L4.96288 13.4858C4.1961 13.9362 3.26693 13.2367 3.48772 12.3753L4.23403 9.46354C4.28266 9.27382 4.21604 9.07317 4.06359 8.95021L1.67466 7.02338C0.967893 6.45333 1.32543 5.31233 2.23113 5.24756L5.42863 5.01888C5.61486 5.00556 5.77815 4.88959 5.85209 4.71815L7.08178 1.86666C7.42908 1.06132 8 1.4 8 2Z" fill="currentColor"/></svg>